<svg xmlns="http://www.w3.org/2000/svg" xmlns:xlink="http://www.w3.org/1999/xlink" width="1024" height="400">\n<path  d="M 0 0
L 1024 0
L 1024 400
L 0 400
L 0 0" style="stroke-width:0;stroke:rgba(255,255,255,1.0);fill:rgba(255,255,255,1.0)"/><path  d="M 38 11
L 965 11
L 965 351
L 38 351
L 38 11" style="stroke-width:0;stroke:rgba(255,255,255,1.0);fill:rgba(255,255,255,1.0)"/><path  d="M 38 351
L 965 351" style="stroke-width:2;stroke:rgba(85,85,85,1.0);fill:none"/><path  d="M 38 351
L 38 356" style="stroke-width:2;stroke:rgba(85,85,85,1.0);fill:none"/><text x="5" y="373" style="stroke-width:0;stroke:none;fill:rgba(51,51,51,1.0);font-size:12.8px;font-family:'Roboto Medium',sans-serif">2022-02-22</text><path  d="M 154 351
L 154 356" style="stroke-width:2;stroke:rgba(85,85,85,1.0);fill:none"/><text x="121" y="373" style="stroke-width:0;stroke:none;fill:rgba(51,51,51,1.0);font-size:12.8px;font-family:'Roboto Medium',sans-serif">2022-03-12</text><path  d="M 270 351
L 270 356" style="stroke-width:2;stroke:rgba(85,85,85,1.0);fill:none"/><text x="237" y="373" style="stroke-width:0;stroke:none;fill:rgba(51,51,51,1.0);font-size:12.8px;font-family:'Roboto Medium',sans-serif">2022-03-29</text><path  d="M 386 351
L 386 356" style="stroke-width:2;stroke:rgba(85,85,85,1.0);fill:none"/><text x="353" y="373" style="stroke-width:0;stroke:none;fill:rgba(51,51,51,1.0);font-size:12.8px;font-family:'Roboto Medium',sans-serif">2022-04-16</text><path  d="M 502 351
L 502 356" style="stroke-width:2;stroke:rgba(85,85,85,1.0);fill:none"/><text x="469" y="373" style="stroke-width:0;stroke:none;fill:rgba(51,51,51,1.0);font-size:12.8px;font-family:'Roboto Medium',sans-serif">2022-05-04</text><path  d="M 618 351
L 618 356" style="stroke-width:2;stroke:rgba(85,85,85,1.0);fill:none"/><text x="585" y="373" style="stroke-width:0;stroke:none;fill:rgba(51,51,51,1.0);font-size:12.8px;font-family:'Roboto Medium',sans-serif">2022-05-22</text><path  d="M 734 351
L 734 356" style="stroke-width:2;stroke:rgba(85,85,85,1.0);fill:none"/><text x="701" y="373" style="stroke-width:0;stroke:none;fill:rgba(51,51,51,1.0);font-size:12.8px;font-family:'Roboto Medium',sans-serif">2022-06-08</text><path  d="M 850 351
L 850 356" style="stroke-width:2;stroke:rgba(85,85,85,1.0);fill:none"/><text x="817" y="373" style="stroke-width:0;stroke:none;fill:rgba(51,51,51,1.0);font-size:12.8px;font-family:'Roboto Medium',sans-serif">2022-06-26</text><path  d="M 965 351
L 965 356" style="stroke-width:2;stroke:rgba(85,85,85,1.0);fill:none"/><text x="932" y="373" style="stroke-width:0;stroke:none;fill:rgba(51,51,51,1.0);font-size:12.8px;font-family:'Roboto Medium',sans-serif">2022-07-14</text><text x="487" y="395" style="stroke-width:0;stroke:none;fill:rgba(51,51,51,1.0);font-size:12.8px;font-family:'Roboto Medium',sans-serif">Time</text><path  d="M 967 351
L 967 11" style="stroke-width:2;stroke:rgba(85,85,85,1.0);fill:none"/><path  d="M 967 351
L 972 351" style="stroke-width:2;stroke:rgba(85,85,85,1.0);fill:none"/><text x="977" y="357" style="stroke-width:0;stroke:none;fill:rgba(51,51,51,1.0);font-size:12.8px;font-family:'Roboto Medium',sans-serif">0</text><path  d="M 967 308
L 972 308" style="stroke-width:2;stroke:rgba(85,85,85,1.0);fill:none"/><text x="977" y="314" style="stroke-width:0;stroke:none;fill:rgba(51,51,51,1.0);font-size:12.8px;font-family:'Roboto Medium',sans-serif">69</text><path  d="M 967 265
L 972 265" style="stroke-width:2;stroke:rgba(85,85,85,1.0);fill:none"/><text x="977" y="271" style="stroke-width:0;stroke:none;fill:rgba(51,51,51,1.0);font-size:12.8px;font-family:'Roboto Medium',sans-serif">138</text><path  d="M 967 223
L 972 223" style="stroke-width:2;stroke:rgba(85,85,85,1.0);fill:none"/><text x="977" y="229" style="stroke-width:0;stroke:none;fill:rgba(51,51,51,1.0);font-size:12.8px;font-family:'Roboto Medium',sans-serif">207</text><path  d="M 967 181
L 972 181" style="stroke-width:2;stroke:rgba(85,85,85,1.0);fill:none"/><text x="977" y="187" style="stroke-width:0;stroke:none;fill:rgba(51,51,51,1.0);font-size:12.8px;font-family:'Roboto Medium',sans-serif">275</text><path  d="M 967 138
L 972 138" style="stroke-width:2;stroke:rgba(85,85,85,1.0);fill:none"/><text x="977" y="144" style="stroke-width:0;stroke:none;fill:rgba(51,51,51,1.0);font-size:12.8px;font-family:'Roboto Medium',sans-serif">344</text><path  d="M 967 95
L 972 95" style="stroke-width:2;stroke:rgba(85,85,85,1.0);fill:none"/><text x="977" y="101" style="stroke-width:0;stroke:none;fill:rgba(51,51,51,1.0);font-size:12.8px;font-family:'Roboto Medium',sans-serif">413</text><path  d="M 967 53
L 972 53" style="stroke-width:2;stroke:rgba(85,85,85,1.0);fill:none"/><text x="977" y="59" style="stroke-width:0;stroke:none;fill:rgba(51,51,51,1.0);font-size:12.8px;font-family:'Roboto Medium',sans-serif">482</text><path  d="M 967 11
L 972 11" style="stroke-width:2;stroke:rgba(85,85,85,1.0);fill:none"/><text x="977" y="17" style="stroke-width:0;stroke:none;fill:rgba(51,51,51,1.0);font-size:12.8px;font-family:'Roboto Medium',sans-serif">550</text><text x="1009" y="150" style="stroke-width:0;stroke:none;fill:rgba(51,51,51,1.0);font-size:12.8px;font-family:'Roboto Medium',sans-serif" transform="rotate(90.00,1009,150)">Stargazers</text><path  d="M 38 351
L 43 350
L 85 349
L 102 349
L 102 348
L 102 347
L 102 347
L 102 346
L 102 346
L 102 345
L 102 344
L 103 344
L 103 343
L 103 342
L 103 342
L 103 341
L 104 341
L 104 340
L 104 339
L 104 339
L 105 338
L 105 338
L 105 337
L 105 336
L 106 336
L 108 335
L 109 334
L 110 334
L 110 333
L 110 333
L 111 332
L 111 331
L 111 331
L 112 330
L 112 329
L 113 329
L 114 328
L 116 328
L 117 327
L 117 326
L 117 326
L 118 325
L 118 325
L 118 324
L 118 323
L 118 323
L 121 322
L 121 321
L 121 321
L 121 320
L 121 320
L 121 319
L 121 318
L 121 318
L 121 317
L 121 317
L 121 316
L 121 315
L 121 315
L 121 314
L 121 313
L 121 313
L 121 312
L 121 312
L 121 311
L 121 310
L 121 310
L 121 309
L 121 308
L 121 308
L 121 307
L 121 307
L 121 306
L 121 305
L 121 305
L 121 304
L 121 304
L 121 303
L 121 302
L 121 302
L 121 301
L 121 300
L 121 300
L 121 299
L 121 299
L 121 298
L 121 297
L 121 297
L 121 296
L 122 295
L 122 295
L 122 294
L 122 294
L 122 293
L 122 292
L 122 292
L 122 291
L 122 291
L 122 290
L 122 289
L 122 289
L 122 288
L 122 287
L 122 287
L 122 286
L 122 286
L 122 285
L 122 284
L 122 284
L 122 283
L 122 283
L 122 282
L 122 281
L 122 281
L 122 280
L 122 279
L 122 279
L 122 278
L 122 278
L 122 277
L 122 276
L 122 276
L 122 275
L 122 274
L 122 274
L 122 273
L 122 273
L 122 272
L 122 271
L 122 271
L 122 270
L 122 270
L 123 269
L 123 268
L 123 268
L 123 267
L 123 266
L 123 266
L 123 265
L 123 265
L 123 264
L 123 263
L 123 263
L 123 262
L 123 261
L 123 261
L 123 260
L 123 260
L 123 259
L 123 258
L 123 258
L 123 257
L 123 257
L 123 256
L 123 255
L 123 255
L 123 254
L 123 253
L 123 253
L 123 252
L 123 252
L 123 251
L 123 250
L 123 250
L 123 249
L 123 249
L 123 248
L 123 247
L 123 247
L 124 246
L 124 245
L 124 245
L 124 244
L 124 244
L 124 243
L 124 242
L 124 242
L 124 241
L 124 240
L 124 240
L 124 239
L 124 239
L 124 238
L 124 237
L 125 237
L 125 236
L 125 236
L 125 235
L 127 234
L 127 234
L 128 233
L 128 232
L 128 232
L 128 231
L 128 231
L 128 230
L 128 229
L 128 229
L 128 228
L 128 227
L 128 227
L 128 226
L 128 226
L 128 225
L 129 224
L 129 224
L 129 223
L 129 223
L 129 222
L 129 221
L 129 221
L 129 220
L 129 219
L 130 219
L 130 218
L 130 218
L 130 217
L 130 216
L 130 216
L 130 215
L 130 215
L 131 214
L 131 213
L 131 213
L 131 212
L 132 211
L 134 211
L 134 210
L 134 210
L 134 209
L 134 208
L 135 208
L 135 207
L 135 206
L 135 206
L 135 205
L 136 205
L 136 204
L 136 203
L 136 203
L 136 202
L 137 202
L 137 201
L 137 200
L 137 200
L 137 199
L 138 198
L 138 198
L 139 197
L 141 197
L 141 196
L 142 195
L 143 195
L 143 194
L 143 193
L 144 193
L 145 192
L 148 192
L 149 191
L 150 190
L 150 190
L 151 189
L 151 189
L 157 188
L 158 187
L 162 187
L 167 186
L 167 185
L 167 185
L 167 184
L 167 184
L 167 183
L 167 182
L 167 182
L 167 181
L 167 181
L 167 180
L 167 179
L 167 179
L 167 178
L 168 177
L 168 177
L 168 176
L 169 176
L 170 175
L 170 174
L 171 174
L 173 173
L 173 172
L 174 172
L 174 171
L 175 171
L 178 170
L 180 169
L 180 169
L 181 168
L 182 168
L 187 167
L 187 166
L 187 166
L 197 165
L 197 164
L 200 164
L 200 163
L 200 163
L 201 162
L 207 161
L 212 161
L 219 160
L 219 159
L 219 159
L 221 158
L 226 158
L 229 157
L 246 156
L 260 156
L 274 155
L 279 155
L 285 154
L 286 153
L 286 153
L 286 152
L 292 151
L 292 151
L 293 150
L 305 150
L 308 149
L 331 148
L 331 148
L 343 147
L 358 147
L 379 146
L 387 145
L 403 145
L 403 144
L 416 143
L 416 143
L 436 142
L 448 142
L 450 141
L 458 140
L 463 140
L 472 139
L 533 138
L 539 138
L 540 137
L 555 137
L 560 136
L 560 135
L 560 135
L 561 134
L 561 134
L 562 133
L 562 132
L 562 132
L 562 131
L 562 130
L 562 130
L 562 129
L 562 129
L 563 128
L 563 127
L 563 127
L 565 126
L 565 125
L 566 125
L 566 124
L 566 124
L 567 123
L 567 122
L 568 122
L 568 121
L 569 121
L 570 120
L 570 119
L 572 119
L 573 118
L 573 117
L 573 117
L 574 116
L 575 116
L 575 115
L 576 114
L 576 114
L 579 113
L 579 113
L 579 112
L 579 111
L 579 111
L 579 110
L 579 109
L 579 109
L 579 108
L 579 108
L 579 107
L 579 106
L 579 106
L 579 105
L 579 104
L 579 104
L 580 103
L 580 103
L 580 102
L 580 101
L 580 101
L 580 100
L 580 100
L 580 99
L 580 98
L 581 98
L 581 97
L 581 96
L 581 96
L 581 95
L 581 95
L 581 94
L 582 93
L 582 93
L 582 92
L 582 91
L 582 91
L 582 90
L 583 90
L 585 89
L 586 88
L 586 88
L 586 87
L 587 87
L 587 86
L 587 85
L 587 85
L 587 84
L 587 83
L 587 83
L 587 82
L 587 82
L 587 81
L 588 80
L 589 80
L 590 79
L 592 79
L 592 78
L 593 77
L 594 77
L 595 76
L 598 75
L 598 75
L 599 74
L 599 74
L 600 73
L 601 72
L 601 72
L 601 71
L 602 70
L 602 70
L 602 69
L 602 69
L 603 68
L 605 67
L 606 67
L 607 66
L 612 66
L 618 65
L 622 64
L 622 64
L 624 63
L 624 62
L 626 62
L 626 61
L 627 61
L 627 60
L 627 59
L 628 59
L 631 58
L 631 57
L 631 57
L 632 56
L 632 56
L 632 55
L 632 54
L 632 54
L 632 53
L 632 53
L 633 52
L 633 51
L 633 51
L 634 50
L 634 49
L 637 49
L 638 48
L 638 48
L 639 47
L 653 46
L 666 46
L 667 45
L 671 45
L 672 44
L 674 43
L 684 43
L 686 42
L 686 41
L 692 41
L 694 40
L 696 40
L 707 39
L 707 38
L 713 38
L 718 37
L 730 36
L 732 36
L 732 35
L 737 35
L 753 34
L 756 33
L 757 33
L 764 32
L 764 32
L 766 31
L 782 30
L 783 30
L 800 29
L 806 28
L 807 28
L 823 27
L 827 27
L 836 26
L 867 25
L 870 25
L 874 24
L 880 23
L 881 23
L 881 22
L 882 22
L 901 21
L 901 20
L 906 20
L 914 19
L 916 19
L 919 18
L 923 17
L 935 17
L 958 16
L 965 15
L 965 15" style="stroke-width:2;stroke:rgba(129,199,239,1.0);fill:none"/></svg>